<?xml version="1.0" standalone="no"?>
<!DOCTYPE svg PUBLIC "-//W3C//DTD SVG 20010904//EN"
 "http://www.w3.org/TR/2001/REC-SVG-20010904/DTD/svg10.dtd">
<svg version="1.0" xmlns="http://www.w3.org/2000/svg"
 width="980.000000pt" height="980.000000pt" viewBox="0 0 980.000000 980.000000"
 preserveAspectRatio="xMidYMid meet">

<g transform="translate(0.000000,980.000000) scale(0.100000,-0.100000)"
fill="#000000" stroke="none">
<path d="M2350 9335 c0 -3 56 -105 124 -227 594 -1068 586 -1051 573 -1067
-10 -14 -10 -14 5 -3 14 12 21 10 47 -9 31 -23 42 -37 19 -23 -9 5 -9 2 1 -9
15 -18 26 -23 16 -7 -10 17 2 12 50 -21 43 -29 45 -32 28 -46 -17 -13 -16 -13
5 -3 19 9 32 5 83 -25 33 -19 65 -35 71 -35 6 0 5 -7 -3 -17 -13 -15 -12 -15
6 -4 21 13 48 0 870 -432 138 -73 315 -162 395 -200 159 -75 220 -106 234
-118 9 -8 -174 -217 -351 -399 -62 -63 -113 -118 -113 -123 0 -4 11 -25 25
-48 14 -22 23 -45 19 -51 -5 -7 -3 -8 6 -3 10 6 12 4 7 -8 -3 -9 -2 -16 4 -14
5 1 26 -27 45 -63 20 -36 40 -70 46 -77 5 -7 6 -18 2 -24 -4 -7 -3 -9 3 -6 6
4 22 -15 37 -41 15 -26 45 -75 67 -110 22 -35 36 -68 33 -74 -4 -7 -2 -8 4 -4
7 4 23 -17 43 -56 17 -35 39 -74 49 -88 9 -14 15 -32 12 -40 -3 -8 -1 -12 3
-8 5 5 23 -19 42 -52 l33 -61 0 -651 c0 -358 2 -653 4 -656 3 -2 60 40 127 94
103 84 197 160 389 315 146 117 563 457 704 574 34 28 135 111 226 184 91 74
181 148 201 165 20 17 47 40 60 50 29 23 142 119 149 126 3 3 32 28 65 55 33
28 69 59 80 70 126 122 147 139 129 107 -10 -18 -56 -85 -103 -150 -46 -64
-147 -211 -224 -327 -78 -115 -188 -277 -246 -360 -57 -82 -187 -274 -289
-425 -102 -151 -226 -336 -277 -410 -50 -74 -161 -238 -247 -365 -85 -126
-206 -306 -269 -398 -63 -93 -125 -186 -139 -208 -56 -88 -237 -348 -283 -408
-35 -45 -50 -73 -49 -93 0 -18 -3 -26 -10 -22 -6 4 -8 3 -5 -3 3 -5 9 -553 12
-1218 3 -665 8 -1211 10 -1213 2 -2 -1 -17 -5 -33 -5 -18 -5 -27 1 -24 5 4 8
-14 6 -44 -1 -28 1 -51 6 -51 5 0 23 11 40 24 18 13 230 142 472 287 242 144
627 378 855 519 228 141 511 315 629 386 117 71 219 138 226 149 7 11 47 72
88 136 206 319 343 603 466 967 78 230 130 476 162 762 19 168 17 581 -5 760
-48 400 -118 688 -246 1011 -128 321 -276 575 -447 765 l-73 82 0 526 c0 289
-3 526 -7 526 -5 0 -33 -36 -63 -80 -30 -44 -91 -129 -135 -189 -44 -60 -120
-165 -170 -233 -138 -190 -232 -281 -365 -356 -273 -154 -616 -129 -887 64
-33 24 -150 137 -260 251 -109 114 -233 243 -275 285 -42 43 -72 78 -68 78 5
0 12 -4 15 -10 3 -5 12 -10 18 -10 7 0 3 7 -8 16 -11 8 -26 12 -33 9 -7 -3
-32 13 -55 35 -23 22 -36 40 -29 40 6 0 12 -4 12 -9 0 -5 8 -12 17 -15 15 -6
14 -4 -2 14 -10 11 -24 19 -31 16 -7 -3 -25 4 -39 16 -21 16 -24 23 -13 30 10
8 9 9 -3 5 -19 -6 -152 110 -143 124 3 5 -1 6 -9 4 -15 -6 -52 29 -44 42 3 4
-7 17 -21 27 -14 11 -22 14 -18 8 13 -22 -5 -12 -40 20 -24 23 -30 34 -21 41
7 5 4 6 -10 2 -14 -4 -26 0 -35 13 -7 10 -46 47 -86 81 -40 35 -71 65 -68 68
3 3 12 0 20 -6 11 -9 16 -9 22 0 4 7 3 9 -4 5 -6 -3 -14 -1 -17 5 -4 5 -13 8
-21 5 -8 -3 -22 2 -32 12 -10 9 -49 44 -87 77 -217 189 -246 216 -239 226 2 4
-1 11 -7 14 -5 4 -8 14 -4 22 4 13 3 14 -10 3 -14 -11 -13 -14 2 -26 10 -7 14
-13 8 -13 -16 0 -86 69 -80 78 2 5 -1 8 -9 7 -13 -1 -86 61 -213 178 -40 37
-50 52 -41 58 9 6 6 7 -8 3 -25 -7 -56 18 -48 39 3 8 0 17 -7 22 -9 5 -10 2
-6 -9 10 -27 -5 -20 -45 21 -30 31 -35 41 -25 52 10 12 9 12 -6 1 -15 -12 -20
-11 -37 4 -11 10 -17 22 -14 27 3 4 2 7 -3 6 -15 -5 -75 51 -68 63 4 6 1 9 -8
7 -8 -2 -47 25 -86 60 -39 35 -88 78 -110 95 -41 33 -53 54 -25 43 9 -3 12 -2
9 5 -4 6 -14 8 -22 5 -23 -9 -328 268 -316 287 3 6 1 7 -5 3 -7 -4 -22 3 -34
15 -13 11 -38 33 -56 47 -19 14 -31 31 -28 39 4 8 1 11 -5 8 -14 -9 -50 25
-42 39 3 6 3 8 -2 4 -9 -9 -90 58 -90 75 0 7 -5 12 -12 12 -6 0 -15 3 -19 8
-8 8 -24 10 -24 2z m2138 -1890 c-3 -3 -9 2 -12 12 -6 14 -5 15 5 6 7 -7 10
-15 7 -18z"/>
<path d="M7400 9304 c-57 -33 -194 -110 -285 -159 -38 -21 -87 -49 -107 -62
-21 -13 -40 -23 -43 -23 -3 0 -72 -37 -153 -81 -81 -45 -300 -164 -486 -266
-187 -101 -359 -195 -383 -210 l-43 -25 -173 113 c-267 175 -666 437 -729 480
-32 22 -62 39 -67 39 -6 0 -10 -81 -11 -192 -1 -106 -3 -236 -5 -288 -2 -52
-6 -329 -9 -615 -8 -669 -15 -867 -30 -858 -6 3 -4 -2 5 -13 9 -10 14 -24 12
-31 -10 -26 20 -20 103 21 49 24 179 83 289 131 196 86 264 120 675 335 113
59 300 155 415 212 214 106 319 162 344 182 8 6 27 39 43 73 15 34 61 120 101
190 41 70 131 232 202 358 71 127 189 335 262 464 73 128 133 237 133 242 0
14 -12 11 -60 -17z"/>
<path d="M2420 9306 c0 -3 9 -10 20 -16 11 -6 20 -8 20 -6 0 3 -9 10 -20 16
-11 6 -20 8 -20 6z"/>
<path d="M2598 9200 c42 -26 56 -26 17 0 -16 11 -34 20 -40 20 -5 0 5 -9 23
-20z"/>
<path d="M2570 9191 c0 -9 30 -24 36 -18 2 1 -6 8 -16 15 -11 7 -20 8 -20 3z"/>
<path d="M2717 9096 c-12 -9 -14 -16 -8 -21 6 -3 11 -2 11 4 0 6 6 9 13 7 6
-1 9 -1 4 1 -4 3 -5 9 -1 14 7 12 2 11 -19 -5z"/>
<path d="M2765 9101 c-3 -5 -2 -12 3 -15 5 -3 9 1 9 9 0 17 -3 19 -12 6z"/>
<path d="M4880 9090 c-8 -5 -10 -10 -5 -10 6 0 17 5 25 10 8 5 11 10 5 10 -5
0 -17 -5 -25 -10z"/>
<path d="M4804 9044 c-18 -14 -18 -14 6 -3 31 14 36 19 24 19 -6 0 -19 -7 -30
-16z"/>
<path d="M2810 8961 c0 -5 7 -12 16 -15 14 -5 15 -4 4 9 -14 17 -20 19 -20 6z"/>
<path d="M4665 8950 c4 -7 2 -10 -6 -8 -8 1 -14 -2 -14 -7 0 -6 5 -8 10 -6 6
2 20 4 32 5 12 1 25 5 30 10 4 5 3 6 -4 2 -7 -4 -22 -2 -34 5 -16 8 -20 8 -14
-1z"/>
<path d="M3123 8853 c0 -8 6 -9 19 -2 10 5 18 11 18 12 0 2 -8 3 -18 3 -10 0
-19 -6 -19 -13z"/>
<path d="M4540 8860 c-9 -6 -10 -10 -3 -10 6 0 15 5 18 10 8 12 4 12 -15 0z"/>
<path d="M2940 8836 c0 -2 8 -10 18 -17 15 -13 16 -12 3 4 -13 16 -21 21 -21
13z"/>
<path d="M3257 8819 c7 -7 15 -10 18 -7 3 3 -2 9 -12 12 -14 6 -15 5 -6 -5z"/>
<path d="M4389 8783 c-13 -16 -12 -17 4 -4 9 7 17 15 17 17 0 8 -8 3 -21 -13z"/>
<path d="M3045 8750 c-3 -6 1 -7 9 -4 18 7 21 14 7 14 -6 0 -13 -4 -16 -10z"/>
<path d="M3447 8719 c7 -7 15 -10 18 -7 3 3 -2 9 -12 12 -14 6 -15 5 -6 -5z"/>
<path d="M3090 8696 c0 -2 7 -7 16 -10 8 -3 12 -2 9 4 -6 10 -25 14 -25 6z"/>
<path d="M4224 8679 c-9 -10 -12 -19 -7 -19 6 0 13 7 17 15 3 8 12 12 21 9 8
-3 15 -4 15 -1 0 15 -31 13 -46 -4z"/>
<path d="M3605 8621 c-6 -11 13 -26 22 -17 4 3 0 6 -8 6 -11 0 -11 2 1 10 9 6
10 10 3 10 -6 0 -14 -4 -18 -9z"/>
<path d="M4110 8610 c-9 -6 -10 -10 -3 -10 6 0 15 5 18 10 8 12 4 12 -15 0z"/>
<path d="M3690 8536 c7 -7 13 -7 20 0 6 6 3 10 -10 10 -13 0 -16 -4 -10 -10z"/>
<path d="M3315 8511 c-3 -5 -2 -12 3 -15 5 -3 9 1 9 9 0 17 -3 19 -12 6z"/>
<path d="M3817 8499 c7 -7 15 -10 18 -7 3 3 -2 9 -12 12 -14 6 -15 5 -6 -5z"/>
<path d="M3551 8347 c2 -1 13 -9 24 -17 19 -14 19 -14 6 3 -7 9 -18 17 -24 17
-6 0 -8 -1 -6 -3z"/>
<path d="M3662 8201 c-11 -7 -11 -9 0 -14 9 -3 15 1 15 9 0 8 -1 14 -1 14 -1
0 -7 -4 -14 -9z"/>
<path d="M3730 8186 c0 -2 8 -10 18 -17 15 -13 16 -12 3 4 -13 16 -21 21 -21
13z"/>
<path d="M3715 8150 c3 -5 8 -10 11 -10 2 0 4 5 4 10 0 6 -5 10 -11 10 -5 0
-7 -4 -4 -10z"/>
<path d="M3800 8079 c0 -5 5 -7 10 -4 6 3 10 8 10 11 0 2 -4 4 -10 4 -5 0 -10
-5 -10 -11z"/>
<path d="M3016 7973 c-6 -14 -5 -15 5 -6 7 7 10 15 7 18 -3 3 -9 -2 -12 -12z"/>
<path d="M6737 7963 c3 -7 6 -13 8 -13 2 0 5 6 8 13 3 8 -1 14 -8 14 -7 0 -11
-6 -8 -14z"/>
<path d="M3965 7940 c-3 -6 1 -7 9 -4 18 7 21 14 7 14 -6 0 -13 -4 -16 -10z"/>
<path d="M6770 7931 c0 -6 4 -13 10 -16 6 -3 7 1 4 9 -7 18 -14 21 -14 7z"/>
<path d="M2990 7925 c0 -5 5 -17 10 -25 5 -8 10 -10 10 -5 0 6 -5 17 -10 25
-5 8 -10 11 -10 5z"/>
<path d="M6622 7921 c-11 -7 -11 -9 0 -14 9 -3 15 1 15 9 0 8 -1 14 -1 14 -1
0 -7 -4 -14 -9z"/>
<path d="M3214 7894 c-18 -14 -18 -15 4 -4 12 6 22 13 22 15 0 8 -5 6 -26 -11z"/>
<path d="M2980 7879 c0 -11 4 -18 10 -14 5 3 7 12 3 20 -7 21 -13 19 -13 -6z"/>
<path d="M6481 7849 c-18 -6 -32 -12 -30 -13 8 -7 69 7 69 15 0 5 -1 9 -2 8
-2 0 -18 -5 -37 -10z"/>
<path d="M6815 7839 c-4 -6 -5 -12 -2 -15 2 -3 7 2 10 11 7 17 1 20 -8 4z"/>
<path d="M6420 7816 c0 -2 7 -7 16 -10 8 -3 12 -2 9 4 -6 10 -25 14 -25 6z"/>
<path d="M6486 7804 c-5 -14 -4 -15 9 -4 17 14 19 20 6 20 -5 0 -12 -7 -15
-16z"/>
<path d="M3315 7799 c-4 -6 -13 -8 -21 -5 -7 3 -15 2 -18 -2 -9 -14 33 -11 45
4 6 8 9 14 6 14 -3 0 -9 -5 -12 -11z"/>
<path d="M6811 7754 c0 -11 3 -14 6 -6 3 7 2 16 -1 19 -3 4 -6 -2 -5 -13z"/>
<path d="M6870 7743 c0 -6 8 -17 18 -24 16 -13 16 -13 2 6 -8 11 -16 22 -17
24 -2 2 -3 0 -3 -6z"/>
<path d="M6606 7692 c-2 -4 4 -8 14 -8 10 0 16 4 14 8 -3 4 -9 8 -14 8 -5 0
-11 -4 -14 -8z"/>
<path d="M4305 7640 c-3 -5 -1 -10 4 -10 6 0 11 5 11 10 0 6 -2 10 -4 10 -3 0
-8 -4 -11 -10z"/>
<path d="M6770 7590 c0 -5 5 -10 10 -10 6 0 10 5 10 10 0 6 -4 10 -10 10 -5 0
-10 -4 -10 -10z"/>
<path d="M2836 7562 c-2 -4 -1 -14 4 -22 7 -11 9 -9 7 8 -1 24 -3 26 -11 14z"/>
<path d="M6785 7561 c-6 -11 13 -26 22 -17 4 3 1 6 -6 6 -7 0 -9 5 -6 10 3 6
4 10 1 10 -3 0 -7 -4 -11 -9z"/>
<path d="M2885 7550 c-3 -5 -2 -10 4 -10 5 0 13 5 16 10 3 6 2 10 -4 10 -5 0
-13 -4 -16 -10z"/>
<path d="M2974 7529 c-48 -38 -55 -45 -29 -30 25 14 82 61 74 61 -3 0 -24 -14
-45 -31z"/>
<path d="M6827 7549 c7 -7 15 -10 18 -7 3 3 -2 9 -12 12 -14 6 -15 5 -6 -5z"/>
<path d="M2800 7481 c0 -10 19 -25 25 -20 1 2 -3 10 -11 17 -8 7 -14 8 -14 3z"/>
<path d="M6966 7475 c-9 -26 -7 -32 5 -12 6 10 9 21 6 23 -2 3 -7 -2 -11 -11z"/>
<path d="M7006 7467 c3 -10 9 -15 12 -12 3 3 0 11 -7 18 -10 9 -11 8 -5 -6z"/>
<path d="M4520 7466 c0 -2 7 -7 16 -10 8 -3 12 -2 9 4 -6 10 -25 14 -25 6z"/>
<path d="M2879 7443 c-13 -16 -12 -17 4 -4 9 7 17 15 17 17 0 8 -8 3 -21 -13z"/>
<path d="M6980 7456 c0 -2 7 -9 15 -16 13 -11 14 -10 9 4 -5 14 -24 23 -24 12z"/>
<path d="M6967 7429 c7 -7 15 -10 18 -7 3 3 -2 9 -12 12 -14 6 -15 5 -6 -5z"/>
<path d="M7020 7401 c0 -6 4 -13 10 -16 6 -3 7 1 4 9 -7 18 -14 21 -14 7z"/>
<path d="M2776 7363 c-6 -14 -5 -15 5 -6 7 7 10 15 7 18 -3 3 -9 -2 -12 -12z"/>
<path d="M5847 7326 c-177 -49 -271 -246 -198 -410 68 -155 254 -226 402 -153
109 53 168 140 176 256 4 51 0 79 -16 122 -26 68 -97 144 -160 171 -59 25
-145 31 -204 14z m228 -89 c18 -15 28 -36 32 -64 5 -39 2 -46 -30 -78 -39 -39
-70 -44 -117 -20 -37 19 -50 43 -50 90 0 81 103 126 165 72z"/>
<path d="M3780 7321 c-137 -42 -229 -172 -216 -308 9 -109 69 -201 158 -246
78 -39 150 -44 237 -18 121 37 190 126 199 257 7 103 -16 163 -88 236 -43 43
-69 60 -110 72 -56 17 -137 20 -180 7z m214 -81 c14 -5 34 -27 45 -48 19 -37
19 -41 3 -72 -25 -49 -63 -74 -100 -65 -73 16 -109 82 -78 143 26 50 71 65
130 42z"/>
<path d="M2734 6845 c0 -49 1 -71 3 -48 2 23 2 64 0 90 -2 26 -3 8 -3 -42z"/>
<path d="M3010 6900 c0 -5 5 -10 11 -10 5 0 7 5 4 10 -3 6 -8 10 -11 10 -2 0
-4 -4 -4 -10z"/>
<path d="M3170 6710 c0 -5 5 -10 11 -10 5 0 7 5 4 10 -3 6 -8 10 -11 10 -2 0
-4 -4 -4 -10z"/>
<path d="M2733 6655 c0 -33 2 -45 4 -27 2 18 2 45 0 60 -2 15 -4 0 -4 -33z"/>
<path d="M2733 6485 c0 -22 2 -30 4 -17 2 12 2 30 0 40 -3 9 -5 -1 -4 -23z"/>
<path d="M4496 6367 c3 -10 9 -15 12 -12 3 3 0 11 -7 18 -10 9 -11 8 -5 -6z"/>
<path d="M2727 6263 c8 -34 28 -46 52 -33 12 6 21 15 21 21 0 6 -7 3 -16 -5
-17 -17 -34 -21 -34 -8 0 5 -7 17 -15 28 -14 18 -14 18 -8 -3z"/>
<path d="M2670 6213 c-207 -239 -429 -645 -550 -1003 -26 -79 -102 -383 -125
-500 -94 -494 -79 -1077 41 -1555 47 -186 45 -181 55 -162 6 9 16 17 22 17 7
0 20 8 28 18 23 25 178 165 203 181 12 8 24 19 27 24 4 5 12 6 19 2 9 -5 11
-4 6 3 -4 6 5 22 20 34 14 13 39 34 54 48 15 14 56 50 91 80 54 47 87 77 200
183 11 9 21 17 24 17 3 0 20 15 38 33 19 17 57 52 87 77 29 25 66 56 81 70 16
14 34 30 42 35 23 18 201 179 232 210 42 42 142 127 171 145 13 8 24 18 24 22
0 5 7 8 15 8 11 0 14 10 12 39 -1 21 -5 37 -8 35 -4 -2 -9 4 -12 14 -3 9 -19
50 -36 90 -17 41 -28 78 -25 83 3 5 1 9 -5 9 -6 0 -13 16 -17 35 -3 19 -10 35
-15 35 -5 0 -9 5 -9 11 0 5 -27 81 -61 167 -33 86 -72 186 -86 222 -14 36 -31
79 -38 95 -35 78 -74 198 -69 207 4 6 2 8 -4 4 -6 -3 -14 4 -17 16 -7 23 -80
215 -96 253 -5 11 -10 27 -11 35 -2 8 -6 17 -9 20 -4 3 -22 48 -41 100 -58
157 -110 293 -125 328 -14 33 -63 172 -63 179 0 2 6 1 13 -2 6 -4 5 -1 -4 7
-17 14 -17 15 -26 48 -7 28 -16 25 -53 -17z"/>
<path d="M2782 6194 c10 -10 20 -16 22 -13 3 3 -5 11 -17 18 -21 13 -21 12 -5
-5z"/>
<path d="M2820 6166 c0 -2 8 -10 18 -17 15 -13 16 -12 3 4 -13 16 -21 21 -21
13z"/>
<path d="M2770 6141 c0 -6 4 -13 10 -16 6 -3 7 1 4 9 -7 18 -14 21 -14 7z"/>
<path d="M2867 6136 c-3 -8 2 -20 11 -27 14 -11 15 -11 5 0 -6 7 -9 20 -6 27
3 8 3 14 0 14 -3 0 -7 -6 -10 -14z"/>
<path d="M2935 6060 c10 -11 20 -20 23 -20 3 0 -3 9 -13 20 -10 11 -20 20 -23
20 -3 0 3 -9 13 -20z"/>
<path d="M2880 5981 c0 -6 4 -13 10 -16 6 -3 7 1 4 9 -7 18 -14 21 -14 7z"/>
<path d="M2843 5945 c-3 -9 -3 -18 -1 -21 3 -3 8 4 11 16 6 23 -1 27 -10 5z"/>
<path d="M2876 5947 c3 -10 9 -15 12 -12 3 3 0 11 -7 18 -10 9 -11 8 -5 -6z"/>
<path d="M2910 5933 c0 -6 8 -17 18 -24 16 -13 16 -13 2 6 -8 11 -16 22 -17
24 -2 2 -3 0 -3 -6z"/>
<path d="M3121 5901 c13 -11 26 -17 28 -15 5 5 -30 33 -43 34 -4 0 2 -9 15
-19z"/>
<path d="M2979 5838 c11 -15 11 -21 0 -35 -12 -17 -12 -17 6 0 19 17 19 17 0
35 -18 16 -18 16 -6 0z"/>
<path d="M2916 5783 c-6 -14 -5 -15 5 -6 7 7 10 15 7 18 -3 3 -9 -2 -12 -12z"/>
<path d="M4812 5750 c0 -14 2 -19 5 -12 2 6 2 18 0 25 -3 6 -5 1 -5 -13z"/>
<path d="M3039 5741 c6 -10 7 -22 3 -26 -4 -5 -1 -5 6 -1 9 5 9 12 2 27 -6 10
-13 19 -16 19 -2 0 0 -8 5 -19z"/>
<path d="M3310 5746 c4 -4 16 -4 26 2 16 9 14 10 -8 9 -15 -1 -23 -6 -18 -11z"/>
<path d="M3407 5699 c7 -7 15 -10 18 -7 3 3 -2 9 -12 12 -14 6 -15 5 -6 -5z"/>
<path d="M3380 5691 c0 -5 7 -12 16 -15 14 -5 15 -4 4 9 -14 17 -20 19 -20 6z"/>
<path d="M3627 5529 c7 -7 15 -10 18 -7 3 3 -2 9 -12 12 -14 6 -15 5 -6 -5z"/>
<path d="M3200 5503 c0 -6 8 -17 18 -24 16 -13 16 -13 2 6 -8 11 -16 22 -17
24 -2 2 -3 0 -3 -6z"/>
<path d="M3659 5456 c14 -14 25 -26 25 -26 1 0 2 12 2 28 1 15 -1 21 -3 15 -4
-10 -10 -10 -26 -2 -21 11 -21 10 2 -15z"/>
<path d="M3242 5440 c7 -10 14 -18 15 -16 6 6 -9 36 -18 36 -5 0 -4 -9 3 -20z"/>
<path d="M3730 5430 c0 -5 5 -10 10 -10 6 0 10 5 10 10 0 6 -4 10 -10 10 -5 0
-10 -4 -10 -10z"/>
<path d="M3700 5426 c0 -2 8 -10 18 -17 15 -13 16 -12 3 4 -13 16 -21 21 -21
13z"/>
<path d="M3746 5401 c-3 -5 2 -15 12 -22 15 -12 16 -12 5 2 -7 9 -10 19 -6 22
3 4 4 7 0 7 -3 0 -8 -4 -11 -9z"/>
<path d="M3820 5327 c0 -2 6 -10 14 -16 11 -9 16 -9 22 1 4 7 4 10 -1 6 -4 -4
-14 -3 -22 3 -7 6 -13 9 -13 6z"/>
<path d="M3330 5311 c0 -6 4 -13 10 -16 6 -3 7 1 4 9 -7 18 -14 21 -14 7z"/>
<path d="M3890 5316 c0 -2 7 -7 16 -10 8 -3 12 -2 9 4 -6 10 -25 14 -25 6z"/>
<path d="M3387 5229 c10 -17 24 -36 32 -42 8 -7 2 7 -14 31 -32 49 -45 57 -18
11z"/>
<path d="M3961 5207 c2 -1 13 -9 24 -17 19 -14 19 -14 6 3 -7 9 -18 17 -24 17
-6 0 -8 -1 -6 -3z"/>
<path d="M4046 5151 c-3 -4 4 -17 17 -27 l22 -19 -20 24 c-18 22 -18 24 -2 18
11 -4 16 -3 12 3 -8 12 -22 13 -29 1z"/>
<path d="M3450 5136 c0 -2 8 -10 18 -17 15 -13 16 -12 3 4 -13 16 -21 21 -21
13z"/>
<path d="M3440 5111 c0 -6 4 -13 10 -16 6 -3 7 1 4 9 -7 18 -14 21 -14 7z"/>
<path d="M4146 5071 c-3 -5 2 -15 12 -22 15 -12 16 -12 5 2 -7 9 -10 19 -6 22
3 4 4 7 0 7 -3 0 -8 -4 -11 -9z"/>
<path d="M3530 5020 c6 -11 13 -20 16 -20 2 0 0 9 -6 20 -6 11 -13 20 -16 20
-2 0 0 -9 6 -20z"/>
<path d="M4290 4935 c19 -19 36 -35 39 -35 3 0 -10 16 -29 35 -19 19 -36 35
-39 35 -3 0 10 -16 29 -35z"/>
<path d="M4290 4966 c0 -2 7 -7 16 -10 8 -3 12 -2 9 4 -6 10 -25 14 -25 6z"/>
<path d="M3261 4943 c-1 -6 -4 -20 -7 -30 -5 -17 -5 -17 6 0 6 10 9 23 6 30
-3 9 -5 9 -5 0z"/>
<path d="M4496 4777 c3 -10 9 -15 12 -12 3 3 0 11 -7 18 -10 9 -11 8 -5 -6z"/>
<path d="M3716 4697 c3 -10 9 -15 12 -12 3 3 0 11 -7 18 -10 9 -11 8 -5 -6z"/>
<path d="M3345 4679 c-4 -6 -5 -12 -2 -15 2 -3 7 2 10 11 7 17 1 20 -8 4z"/>
<path d="M3770 4671 c5 -11 15 -23 21 -27 6 -3 3 5 -6 20 -20 30 -30 35 -15 7z"/>
<path d="M4625 4671 c-3 -5 0 -13 6 -17 7 -4 9 -3 5 4 -3 5 0 13 6 15 9 4 10
6 1 6 -6 1 -14 -3 -18 -8z"/>
<path d="M3806 4617 c3 -10 9 -15 12 -12 3 3 0 11 -7 18 -10 9 -11 8 -5 -6z"/>
<path d="M4695 4600 c3 -5 8 -10 11 -10 2 0 4 5 4 10 0 6 -5 10 -11 10 -5 0
-7 -4 -4 -10z"/>
<path d="M4725 4590 c-3 -6 1 -7 9 -4 18 7 21 14 7 14 -6 0 -13 -4 -16 -10z"/>
<path d="M4765 4590 c-3 -6 1 -7 9 -4 18 7 21 14 7 14 -6 0 -13 -4 -16 -10z"/>
<path d="M4741 4568 c2 -2 20 -16 39 -33 19 -16 28 -21 20 -10 -18 25 -42 44
-54 45 -5 0 -7 -1 -5 -2z"/>
<path d="M3860 4541 c0 -6 4 -13 10 -16 6 -3 7 1 4 9 -7 18 -14 21 -14 7z"/>
<path d="M3401 4524 c0 -11 3 -14 6 -6 3 7 2 16 -1 19 -3 4 -6 -2 -5 -13z"/>
<path d="M4845 4500 c-4 -6 -4 -14 -1 -17 3 -4 6 -1 6 5 0 7 5 12 11 12 6 0 9
-7 6 -15 -4 -8 -2 -17 2 -19 5 -3 8 4 7 16 -1 24 -20 35 -31 18z"/>
<path d="M3860 4482 c0 -5 7 -15 15 -22 8 -7 15 -9 15 -6 0 4 -7 14 -15 22 -8
9 -15 11 -15 6z"/>
<path d="M3926 4395 c-4 -11 -2 -14 6 -9 7 5 9 2 5 -9 -4 -11 -2 -14 9 -10 12
4 12 8 2 22 -7 9 -13 17 -14 19 -1 2 -4 -4 -8 -13z"/>
<path d="M3970 4380 c6 -11 13 -20 16 -20 2 0 0 9 -6 20 -6 11 -13 20 -16 20
-2 0 0 -9 6 -20z"/>
<path d="M4087 4203 c-3 -5 -2 -15 4 -23 12 -21 11 -33 -3 -24 -7 4 -8 3 -4
-5 11 -18 25 -3 22 24 -3 28 -11 40 -19 28z"/>
<path d="M3485 4188 c-5 -15 -75 -235 -82 -260 -3 -10 -10 -18 -15 -18 -5 0
-7 -4 -3 -9 3 -5 1 -20 -4 -33 -5 -13 -21 -63 -37 -112 -24 -79 -29 -87 -41
-70 -16 22 -18 11 -2 -14 9 -14 3 -42 -27 -131 -33 -100 -39 -111 -51 -95 -16
21 -17 11 -3 -17 9 -15 2 -46 -31 -144 -24 -68 -46 -122 -51 -119 -4 3 -6 -1
-3 -8 7 -19 -301 -933 -309 -917 -3 8 -4 1 -1 -14 4 -18 2 -26 -4 -22 -6 3 -9
0 -6 -7 3 -7 -23 -102 -58 -210 -58 -179 -63 -199 -48 -211 30 -26 135 -94
304 -196 92 -56 392 -242 665 -413 464 -291 1153 -717 1195 -739 16 -9 18 -6
15 28 -2 21 -6 40 -10 43 -11 8 -241 623 -242 647 0 11 -5 19 -10 16 -5 -4 -6
7 -2 23 4 18 3 24 -2 16 -10 -16 -89 191 -84 222 1 11 -1 17 -5 13 -10 -10
-85 192 -77 206 4 7 4 9 -1 5 -11 -10 -117 272 -111 294 2 10 0 16 -6 15 -5
-1 -22 34 -38 78 -15 44 -47 130 -70 190 -23 61 -44 119 -47 130 -3 11 -11 34
-19 52 -8 17 -14 37 -14 45 0 8 -4 18 -8 24 -8 9 -41 92 -46 117 -2 6 -10 29
-20 49 -9 21 -16 42 -16 48 0 6 -5 18 -10 28 -10 17 -49 123 -155 427 -29 83
-63 177 -75 210 -12 33 -28 78 -34 100 -6 22 -17 50 -25 63 -7 13 -10 30 -7
38 4 10 2 12 -6 8 -7 -5 -9 2 -5 22 3 16 4 23 0 15 -3 -9 -13 4 -24 34 -10 26
-16 52 -13 57 3 4 1 8 -4 8 -14 0 -45 87 -36 101 5 8 3 9 -6 4 -10 -6 -12 -3
-8 13 4 12 2 20 -2 17 -5 -3 -15 14 -21 37 -7 24 -16 48 -20 53 -4 6 -23 55
-42 110 -55 158 -58 165 -68 165 -5 0 -12 -6 -14 -12z"/>
<path d="M3580 4137 c4 -41 5 -41 8 -8 2 18 0 37 -5 42 -5 5 -6 -11 -3 -34z"/>
<path d="M3546 4145 c4 -8 8 -15 10 -15 2 0 4 7 4 15 0 8 -4 15 -10 15 -5 0
-7 -7 -4 -15z"/>
<path d="M3550 4109 c0 -5 5 -7 10 -4 6 3 10 8 10 11 0 2 -4 4 -10 4 -5 0 -10
-5 -10 -11z"/>
<path d="M3576 4037 c3 -10 9 -15 12 -12 3 3 0 11 -7 18 -10 9 -11 8 -5 -6z"/>
<path d="M4290 3910 c0 -5 5 -10 11 -10 5 0 7 5 4 10 -3 6 -8 10 -11 10 -2 0
-4 -4 -4 -10z"/>
<path d="M4240 3901 c0 -10 19 -25 25 -20 1 2 -3 10 -11 17 -8 7 -14 8 -14 3z"/>
<path d="M4325 3850 c-4 -6 -2 -9 4 -8 5 2 17 -6 26 -17 16 -20 16 -20 5 2
-13 27 -27 36 -35 23z"/>
<path d="M4330 3821 c0 -6 4 -13 10 -16 6 -3 7 1 4 9 -7 18 -14 21 -14 7z"/>
<path d="M3746 3707 c3 -10 9 -15 12 -12 3 3 0 11 -7 18 -10 9 -11 8 -5 -6z"/>
<path d="M4426 3707 c3 -10 9 -15 12 -12 3 3 0 11 -7 18 -10 9 -11 8 -5 -6z"/>
<path d="M3731 3695 c1 -19 18 -51 18 -35 0 8 -4 22 -9 30 -5 8 -9 11 -9 5z"/>
<path d="M4530 3540 c0 -5 5 -10 11 -10 5 0 7 5 4 10 -3 6 -8 10 -11 10 -2 0
-4 -4 -4 -10z"/>
<path d="M3801 3484 c0 -11 3 -14 6 -6 3 7 2 16 -1 19 -3 4 -6 -2 -5 -13z"/>
<path d="M4586 3475 c4 -8 8 -15 10 -15 2 0 4 7 4 15 0 8 -4 15 -10 15 -5 0
-7 -7 -4 -15z"/>
<path d="M3816 3423 c-4 -9 -3 -20 1 -24 4 -4 9 3 9 17 2 28 -1 31 -10 7z"/>
<path d="M4630 3416 c0 -2 8 -10 18 -17 15 -13 16 -12 3 4 -13 16 -21 21 -21
13z"/>
<path d="M4663 3352 c-1 -22 0 -24 9 -8 6 10 6 22 2 26 -5 5 -10 -3 -11 -18z"/>
<path d="M3872 3260 c0 -14 2 -19 5 -12 2 6 2 18 0 25 -3 6 -5 1 -5 -13z"/>
<path d="M3130 3255 c0 -5 4 -16 9 -23 6 -11 10 -10 15 4 3 9 4 19 1 22 -3 3
-5 -1 -5 -9 0 -11 -2 -11 -10 1 -5 8 -10 11 -10 5z"/>
<path d="M4721 3234 c0 -11 3 -14 6 -6 3 7 2 16 -1 19 -3 4 -6 -2 -5 -13z"/>
<path d="M4806 3093 c-6 -14 -5 -15 5 -6 7 7 10 15 7 18 -3 3 -9 -2 -12 -12z"/>
<path d="M4846 3097 c3 -10 9 -15 12 -12 3 3 0 11 -7 18 -10 9 -11 8 -5 -6z"/>
<path d="M3061 3044 c0 -11 3 -14 6 -6 3 7 2 16 -1 19 -3 4 -6 -2 -5 -13z"/>
<path d="M3071 3013 c-1 -7 -6 -12 -12 -10 -6 1 -14 -5 -16 -13 -4 -13 -3 -13
6 0 9 13 11 12 11 -5 1 -19 1 -19 11 -2 6 10 8 23 5 30 -3 9 -5 9 -5 0z"/>
<path d="M2141 2934 c0 -11 3 -14 6 -6 3 7 2 16 -1 19 -3 4 -6 -2 -5 -13z"/>
<path d="M2986 2764 c-4 -14 -5 -29 -2 -31 3 -3 8 7 12 21 3 15 4 29 1 32 -2
3 -8 -7 -11 -22z"/>
<path d="M2161 2750 c0 -14 28 -72 29 -59 0 4 -7 22 -15 40 -8 19 -14 27 -14
19z"/>
<path d="M2201 2724 c0 -11 3 -14 6 -6 3 7 2 16 -1 19 -3 4 -6 -2 -5 -13z"/>
<path d="M2263 2523 c0 -12 5 -19 10 -16 5 3 6 -5 2 -18 -9 -27 -6 -25 20 16
14 23 15 27 3 17 -14 -11 -18 -10 -27 5 -9 16 -10 16 -8 -4z"/>
<path d="M2891 2474 c0 -11 3 -14 6 -6 3 7 2 16 -1 19 -3 4 -6 -2 -5 -13z"/>
<path d="M2335 2380 c3 -5 8 -10 11 -10 2 0 4 5 4 10 0 6 -5 10 -11 10 -5 0
-7 -4 -4 -10z"/>
<path d="M4192 2370 c0 -14 2 -19 5 -12 2 6 2 18 0 25 -3 6 -5 1 -5 -13z"/>
<path d="M2375 2330 c-4 -6 -11 -8 -16 -5 -5 3 -6 -1 -3 -10 4 -9 7 -15 8 -13
1 2 8 11 15 21 7 9 11 17 8 17 -3 0 -9 -5 -12 -10z"/>
<path d="M2827 2291 c-4 -17 -3 -21 5 -13 5 5 8 16 6 23 -3 8 -7 3 -11 -10z"/>
<path d="M2375 2291 c-3 -5 -2 -12 3 -15 5 -3 9 1 9 9 0 17 -3 19 -12 6z"/>
<path d="M2410 2231 c0 -6 4 -13 10 -16 6 -3 7 1 4 9 -7 18 -14 21 -14 7z"/>
<path d="M2450 2216 c0 -8 4 -17 9 -20 5 -4 7 3 4 14 -6 23 -13 26 -13 6z"/>
<path d="M2432 2180 c7 -10 14 -18 15 -16 6 6 -9 36 -18 36 -5 0 -4 -9 3 -20z"/>
<path d="M4300 2131 c0 -7 -5 -9 -12 -5 -7 5 -8 3 -3 -5 5 -9 10 -10 18 -2 6
6 8 14 4 18 -4 3 -7 1 -7 -6z"/>
<path d="M2541 2054 c0 -11 3 -14 6 -6 3 7 2 16 -1 19 -3 4 -6 -2 -5 -13z"/>
<path d="M2751 2034 c0 -11 3 -14 6 -6 3 7 2 16 -1 19 -3 4 -6 -2 -5 -13z"/>
<path d="M2520 2036 c0 -2 8 -10 18 -17 15 -13 16 -12 3 4 -13 16 -21 21 -21
13z"/>
<path d="M2575 1980 c3 -5 8 -10 11 -10 2 0 4 5 4 10 0 6 -5 10 -11 10 -5 0
-7 -4 -4 -10z"/>
<path d="M4370 1891 c0 -6 4 -13 10 -16 6 -3 7 1 4 9 -7 18 -14 21 -14 7z"/>
<path d="M2636 1868 c3 -5 10 -6 15 -3 13 9 11 12 -6 12 -8 0 -12 -4 -9 -9z"/>
<path d="M2670 1860 c-6 -11 -8 -20 -6 -20 3 0 10 9 16 20 6 11 8 20 6 20 -3
0 -10 -9 -16 -20z"/>
<path d="M4462 1740 c0 -14 2 -19 5 -12 2 6 2 18 0 25 -3 6 -5 1 -5 -13z"/>
<path d="M4461 1684 c0 -11 3 -14 6 -6 3 7 2 16 -1 19 -3 4 -6 -2 -5 -13z"/>
<path d="M4611 1284 c0 -11 3 -14 6 -6 3 7 2 16 -1 19 -3 4 -6 -2 -5 -13z"/>
<path d="M4670 1096 c0 -8 4 -17 9 -20 5 -4 7 3 4 14 -6 23 -13 26 -13 6z"/>
</g>
</svg>
